<svg xmlns="http://www.w3.org/2000/svg" xmlns:xlink="http://www.w3.org/1999/xlink" width="500" zoomAndPan="magnify" viewBox="0 0 375 89.999999" height="120" preserveAspectRatio="xMidYMid meet" version="1.0"><defs><g/></defs><g fill="#dd00ae" fill-opacity="1"><g transform="translate(22.534513, 74.024179)"><g><path d="M 24.300781 -59.953125 C 16.5625 -60.238281 10.296875 -57.527344 10.296875 -57.527344 L 12.085938 -50.242188 C 8.25 -49.222656 4.246094 -48.066406 0.632812 -46.847656 L 6.726562 -10.324219 L 29.621094 -11.40625 L 30.417969 -10.945312 L 31.828125 -4.679688 C 31.839844 -4.605469 4.132812 -1.0625 4.132812 -1.0625 C 3.617188 6.941406 5.726562 9.847656 5.726562 9.847656 L 23.507812 6.796875 L 23.878906 14.589844 C 23.878906 14.589844 28.785156 15.675781 36.121094 13.1875 L 34.082031 4.984375 L 47.304688 2.710938 C 47.488281 1.34375 47.503906 0.921875 47.503906 0.921875 C 48.140625 -4.6875 44.492188 -22.34375 44.492188 -22.34375 L 43.308594 -22.859375 L 12.097656 -18.382812 L 9.757812 -27.882812 L 38.003906 -31.660156 C 37.984375 -46.746094 34.144531 -54.6875 34.144531 -54.6875 L 29.527344 -54.050781 C 28.664062 -53.925781 26.910156 -53.628906 24.605469 -53.140625 Z M 24.300781 -59.953125 "/></g></g></g><g fill="#dd00ae" fill-opacity="1"><g transform="translate(71.205672, 66.917843)"><g><path d="M 25.71875 -32.933594 C 25.703125 -29.925781 26.472656 -19.570312 24.824219 -19.296875 C 24.824219 -19.296875 23.335938 -18.542969 23.328125 -18.621094 C 23.320312 -18.734375 15.464844 -17.289062 14.605469 -17.890625 L 13.457031 -19.152344 L 12.402344 -22.972656 C 12.402344 -22.972656 10.734375 -31.984375 11.34375 -33.148438 C 11.34375 -33.148438 12.746094 -34.804688 20.742188 -35.578125 C 24.097656 -35.902344 25.695312 -35.941406 25.71875 -32.933594 Z M 37.054688 -59.078125 C 15.84375 -61.484375 2.277344 -55.722656 2.277344 -55.722656 L -0.00390625 -52.914062 C -1.234375 -30.5625 7.375 -6.039062 7.375 -6.039062 L 8.339844 -3.507812 C 17.71875 4.117188 35.386719 -2.957031 35.394531 -2.84375 C 35.40625 -2.730469 38.335938 -6.285156 38.335938 -6.285156 C 45.289062 -26.980469 38.707031 -57.332031 38.707031 -57.332031 Z M 37.054688 -59.078125 "/></g></g></g><g fill="#dd00ae" fill-opacity="1"><g transform="translate(118.126956, 62.337747)"><g><path d="M 42.378906 -7.0625 C 42.378906 -7.0625 32.316406 -20.011719 26.953125 -25.902344 C 32.871094 -32.328125 47.054688 -46.738281 46.808594 -47.105469 C 43.957031 -51.292969 35.347656 -57.636719 35.347656 -57.636719 L 33.507812 -57.964844 C 33.507812 -57.964844 25.855469 -50.582031 17.832031 -39.847656 C 17.558594 -49.542969 17.34375 -56.4375 17.15625 -56.46875 C 11.03125 -57.578125 6.769531 -57.035156 6.769531 -57.035156 L 4.90625 -56.378906 C 4.90625 -56.378906 5.640625 -20.222656 7.664062 -4.007812 L 9.03125 -2.328125 L 16.792969 -2.65625 C 16.792969 -2.65625 16.695312 -9.480469 16.445312 -20.355469 C 18.855469 -17.550781 25.359375 -11.5625 35 -2.726562 L 37.144531 -2.296875 Z M 42.378906 -7.0625 "/></g></g></g><g fill="#dd00ae" fill-opacity="1"><g transform="translate(167.168726, 60.051841)"><g><path d="M 6.339844 -56.011719 C 4.578125 -38.164062 2.96875 -22.09375 2.042969 -2.691406 L 3.332031 -1.253906 L 21.558594 -0.367188 L 22.117188 -12.039062 L 28.972656 -11.589844 C 30.425781 -1.625 30.121094 -3.371094 30.804688 -0.90625 C 33.949219 -0.796875 38.914062 -0.992188 41.644531 -0.996094 C 39.800781 -20.015625 37.054688 -37.179688 34.835938 -56.121094 C 31.160156 -56.457031 15.773438 -58.335938 6.339844 -56.011719 Z M 19.945312 -21.734375 L 19.742188 -32.839844 C 19.742188 -32.839844 19.476562 -34.011719 28.53125 -33.378906 L 29.304688 -21.214844 Z M 19.945312 -21.734375 "/></g></g></g><g fill="#dd00ae" fill-opacity="1"><g transform="translate(209.741632, 59.849061)"><g><path d="M 29.40625 0.664062 C 29.40625 0.664062 30.113281 -16.792969 30.6875 -22.53125 C 37.660156 -28.800781 53.601562 -44.289062 53.457031 -44.445312 C 49.152344 -48.9375 38.449219 -55.28125 38.449219 -55.28125 L 36.542969 -55.863281 C 36.542969 -55.863281 31.898438 -49.824219 25.332031 -40.15625 C 19.886719 -48.570312 15.460938 -55.265625 15.304688 -55.195312 C 9.472656 -52.964844 6.4375 -50.492188 6.4375 -50.492188 L 5.1875 -48.957031 C 5.1875 -48.957031 12.515625 -38.597656 19.566406 -28.0625 L 19.632812 -27.867188 C 19.203125 -24.359375 18.261719 -14.046875 18.605469 -2.765625 L 19.808594 -0.964844 Z M 29.40625 0.664062 "/></g></g></g><g fill="#dd00ae" fill-opacity="1"><g transform="translate(262.359293, 62.336576)"><g><path d="M 47.441406 -37.730469 C 49.949219 -43.460938 49.058594 -52.152344 49.058594 -52.152344 L 46.699219 -52.539062 L 14.261719 -54.90625 C 14.261719 -54.90625 12.566406 -52.027344 12.179688 -49.628906 C 11.789062 -47.230469 7.777344 -8.941406 9.027344 -4.25 C 9.636719 -1.941406 10.160156 0.433594 10.972656 0.703125 C 11.785156 0.972656 21.289062 2.675781 33.589844 3.777344 C 45.894531 4.878906 43.152344 4.914062 43.152344 4.914062 L 43.832031 -5.835938 C 43.832031 -5.835938 42.175781 -7.179688 42.242188 -7.09375 C 42.3125 -7.011719 43.285156 -6.839844 43.285156 -6.839844 L 24.898438 -8.808594 L 24.054688 -9.921875 L 25.261719 -19.4375 C 37.566406 -18.332031 43.910156 -18.164062 43.910156 -18.164062 L 44.371094 -22.839844 C 44.371094 -22.839844 44.105469 -26.710938 44.175781 -26.628906 C 44.242188 -26.546875 39.558594 -26.933594 39.558594 -26.933594 L 29.789062 -27.859375 C 28.589844 -32.699219 29.609375 -38.386719 29.609375 -38.386719 C 44.917969 -37.636719 47.441406 -37.730469 47.441406 -37.730469 Z M 47.441406 -37.730469 "/></g></g></g><g fill="#dd00ae" fill-opacity="1"><g transform="translate(311.361487, 67.191295)"><g><path d="M 13.707031 -57.308594 C 13.707031 -57.308594 2.179688 -16.839844 9.1875 3.15625 C 9.1875 3.15625 30.777344 4.542969 40.277344 4.796875 L 42.027344 -5.515625 L 47.414062 -5.144531 L 48.011719 -15.167969 C 38.285156 -17.523438 27.789062 -17.003906 27.789062 -17.003906 L 27.4375 -12.265625 L 31.40625 -11.414062 L 30.792969 -5.183594 C 29.589844 -5.324219 28.160156 -5.496094 26.359375 -5.761719 C 25.648438 -5.867188 18.589844 -7.101562 18.15625 -8.046875 C 17.949219 -8.726562 18.605469 -21.460938 18.605469 -21.460938 C 18.605469 -21.460938 18.617188 -23.871094 20.382812 -25.71875 C 21.921875 -27.332031 36.714844 -24.535156 39.21875 -24.625 C 39.203125 -24.511719 39.238281 -24.503906 39.292969 -24.613281 L 39.21875 -24.625 C 39.238281 -25.273438 41.054688 -30.828125 41.054688 -30.828125 C 41.550781 -34.199219 43.273438 -47.429688 43.527344 -50.953125 C 37.113281 -52.664062 20.351562 -57.171875 13.707031 -57.308594 Z M 13.707031 -57.308594 "/></g></g></g><path stroke-linecap="butt" transform="matrix(0.72322, -0.105499, 0.105499, 0.72322, 9.491479, 0.0205487)" fill="none" stroke-linejoin="miter" d="M 44.743223 23.631063 C 34.323496 21.711401 25.299033 24.148787 25.299033 24.148787 L 26.287714 34.36623 C 20.893674 34.983686 15.243678 35.763648 10.111746 36.694799 L 11.147931 87.352478 L 42.358411 90.409166 L 43.341744 91.184549 L 44.018782 99.94682 C 44.01999 100.049618 5.807088 99.379605 5.807088 99.379605 C 3.523707 110.108155 5.804825 114.464798 5.804825 114.464798 L 30.487348 113.841622 L 29.449896 124.471059 C 29.449896 124.471059 35.877969 126.910283 46.296199 124.98948 L 45.155631 113.480602 L 63.512003 113.014838 C 64.030588 111.20007 64.135834 110.626693 64.135834 110.626693 C 66.104957 103.163231 64.652447 78.537969 64.652447 78.537969 L 63.147304 77.600049 L 20.01216 77.497488 L 18.715209 64.172603 L 57.70269 64.642338 C 60.660991 44.214484 57.030667 32.704293 57.030667 32.704293 L 50.653731 32.654454 C 49.460252 32.653194 47.022498 32.702676 43.811048 32.909356 Z M 44.743223 23.631063 " stroke="#65ff6b" stroke-width="2.12362" stroke-opacity="1" stroke-miterlimit="4"/><path stroke-linecap="butt" transform="matrix(0.727499, -0.0701667, 0.0701667, 0.727499, 61.695906, -7.51363)" fill="none" stroke-linejoin="miter" d="M 39.350452 58.523134 C 38.934082 62.617433 38.626677 76.8275 36.345747 76.983366 C 36.345747 76.983366 34.220335 77.809301 34.219444 77.707196 C 34.218364 77.551378 23.330636 78.482582 22.239268 77.550429 L 20.840426 75.686557 L 19.911179 70.345634 C 19.911179 70.345634 18.818491 57.847611 19.806113 56.348147 C 19.806113 56.348147 21.928719 54.270865 32.919711 54.273162 C 37.537445 54.272877 39.71311 54.429024 39.350452 58.523134 Z M 58.222602 24.411146 C 29.657251 18.343102 10.418962 24.407485 10.418962 24.407485 L 6.948517 27.93338 C 2.331434 58.211917 10.835307 92.741361 10.835307 92.741361 L 11.821646 96.32125 C 23.588428 107.931897 48.579221 100.623582 48.580301 100.779399 C 48.58138 100.935217 53.038771 96.473583 53.038771 96.473583 C 65.221365 69.20137 60.244091 27.000881 60.244091 27.000881 Z M 58.222602 24.411146 " stroke="#65ff6b" stroke-width="2.12362" stroke-opacity="1" stroke-miterlimit="4"/><path stroke-linecap="butt" transform="matrix(0.730049, -0.0347221, 0.0347221, 0.730049, 112.161661, -12.348795)" fill="none" stroke-linejoin="miter" d="M 58.375967 93.102577 C 58.375967 93.102577 45.470813 74.751336 38.523827 66.352125 C 47.024133 57.954566 67.345224 39.18246 67.0381 38.66489 C 63.407783 32.756315 52.053883 23.526828 52.053883 23.526828 L 49.566075 22.959048 C 49.566075 22.959048 38.622804 32.545979 26.959343 46.700228 C 27.221186 33.43233 27.375715 23.995756 27.116155 23.940606 C 18.817358 22.026315 12.963003 22.491617 12.963003 22.491617 L 10.368501 23.26713 C 10.368501 23.26713 9.021961 72.728845 10.733369 95.020853 L 12.492694 97.405315 L 23.121798 97.461393 C 23.121798 97.461393 23.431915 88.12853 23.797131 73.249649 C 26.908733 77.239418 35.408239 85.846236 48.009532 98.548774 L 50.912487 99.275416 Z M 58.375967 93.102577 " stroke="#65ff6b" stroke-width="2.12362" stroke-opacity="1" stroke-miterlimit="4"/><path stroke-linecap="butt" transform="matrix(0.730874, -0.00084554, 0.00084554, 0.730874, 164.591081, -14.717175)" fill="none" stroke-linejoin="miter" d="M 8.763177 23.374694 C 6.324502 47.791476 4.097088 69.771352 2.799701 96.316615 L 4.561144 98.29082 L 29.497739 99.5329 L 30.280495 83.564059 L 39.659592 84.189541 C 41.632024 97.820623 41.217901 95.43644 42.149308 98.809978 C 46.451554 98.964604 53.244876 98.705232 56.980772 98.704209 C 54.488216 72.678335 50.758117 49.189727 47.752355 23.270151 C 42.71826 22.799345 21.674114 20.209578 8.763177 23.374694 Z M 27.324238 70.289929 L 27.063891 55.100196 C 27.063891 55.100196 26.702311 53.49639 39.090139 54.376551 L 40.12912 71.020922 Z M 27.324238 70.289929 " stroke="#65ff6b" stroke-width="2.12362" stroke-opacity="1" stroke-miterlimit="4"/><path stroke-linecap="butt" transform="matrix(0.730066, 0.0343679, -0.0343679, 0.730066, 210.685333, -14.839155)" fill="none" stroke-linejoin="miter" d="M 40.234573 99.016245 C 40.234573 99.016245 40.07773 75.112053 40.493331 67.232542 C 49.613973 58.210215 70.405022 36.021924 70.197437 35.817674 C 64.030497 29.95486 48.994282 21.973409 48.994282 21.973409 L 46.351544 21.300585 C 46.351544 21.300585 40.387019 29.853305 32.04 43.488834 C 24.056493 32.33959 17.576969 23.473784 17.367945 23.579933 C 9.540752 27.003559 5.54632 30.578491 5.54632 30.578491 L 3.94204 32.756775 C 3.94204 32.756775 14.618625 46.443813 24.938149 60.388435 L 25.041474 60.651098 C 24.679901 65.472906 24.056506 79.622335 25.247038 95.024008 L 27.012558 97.407496 Z M 40.234573 99.016245 " stroke="#65ff6b" stroke-width="2.12362" stroke-opacity="1" stroke-miterlimit="4"/><path stroke-linecap="butt" transform="matrix(0.72733, 0.0718905, -0.0718905, 0.72733, 267.055272, -12.078062)" fill="none" stroke-linejoin="miter" d="M 59.519348 42.24348 C 62.162741 34.103432 59.780372 22.389173 59.780372 22.389173 L 56.510509 22.180675 L 12.030712 23.322507 C 12.030712 23.322507 10.109316 27.465233 9.900756 30.788808 C 9.69699 34.106539 9.382367 86.780927 11.715731 93.000466 C 12.856143 96.06181 13.8938 99.224613 15.036365 99.482256 C 16.173611 99.740425 29.343233 100.780329 46.245407 100.624218 C 63.147582 100.468108 59.412737 100.880231 59.412737 100.880231 L 58.897283 86.156471 C 58.897283 86.156471 56.461308 84.549737 56.562765 84.652493 C 56.669542 84.754723 58.017557 84.863163 58.017557 84.863163 L 32.716923 84.651732 L 31.418781 83.254773 L 31.781633 70.135961 C 48.683807 69.97985 57.339199 69.360646 57.339199 69.360646 L 57.34285 62.931596 C 57.34285 62.931596 56.4602 57.696506 56.561658 57.799262 C 56.668434 57.901492 50.23926 58.005266 50.23926 58.005266 L 36.812057 58.054214 C 34.52786 51.62573 35.151135 43.749802 35.151135 43.749802 C 56.096081 42.710737 59.519348 42.24348 59.519348 42.24348 Z M 59.519348 42.24348 " stroke="#65ff6b" stroke-width="2.12362" stroke-opacity="1" stroke-miterlimit="4"/><path stroke-linecap="butt" transform="matrix(0.72304, 0.106727, -0.106727, 0.72304, 319.541148, -6.794322)" fill="none" stroke-linejoin="miter" d="M 7.101107 19.688614 C 7.101107 19.688614 -0.415477 76.773801 13.064386 102.434225 C 13.064386 102.434225 42.564536 99.997632 55.474059 98.443233 L 55.78766 84.134249 L 63.148528 83.56636 L 61.954832 69.879655 C 48.318758 68.634736 34.220783 71.434264 34.220783 71.434264 L 34.685552 77.913532 L 40.23369 78.277732 L 40.648411 86.833559 C 38.986528 86.884377 37.017025 86.937382 34.53178 86.936855 C 33.543126 86.936921 23.747578 86.675632 22.966526 85.483509 C 22.555005 84.59881 20.893693 67.231769 20.893693 67.231769 C 20.893693 67.231769 20.428012 63.967144 22.448729 61.113468 C 24.210389 58.627586 44.792326 59.457718 48.163556 58.835835 C 48.16504 58.99229 48.218694 58.989773 48.266356 58.836869 L 48.163556 58.835835 C 48.060436 57.954236 49.409233 50.072736 49.409233 50.072736 C 49.406408 45.405362 49.095488 27.158272 48.73441 22.33308 C 39.716056 21.297962 16.122956 18.551397 7.101107 19.688614 Z M 7.101107 19.688614 " stroke="#65ff6b" stroke-width="2.12362" stroke-opacity="1" stroke-miterlimit="4"/></svg>