<svg xmlns="http://www.w3.org/2000/svg" xmlns:xlink="http://www.w3.org/1999/xlink" width="500" zoomAndPan="magnify" viewBox="0 0 375 112.499997" height="150" preserveAspectRatio="xMidYMid meet" version="1.0"><defs><g/><clipPath id="1a1ff6c59e"><path d="M 310 35 L 369 35 L 369 112.003906 L 310 112.003906 Z M 310 35 " clip-rule="nonzero"/></clipPath><clipPath id="50ddae6830"><path d="M 314 35 L 373 35 L 373 112.003906 L 314 112.003906 Z M 314 35 " clip-rule="nonzero"/></clipPath><clipPath id="acd4ff6b6d"><path d="M 312 35 L 371 35 L 371 112.003906 L 312 112.003906 Z M 312 35 " clip-rule="nonzero"/></clipPath></defs><g fill="#00ffff" fill-opacity="1"><g transform="translate(11.09429, 92.913857)"><g><path d="M 34.140625 -40.578125 C 34.847656 -36.066406 33.3125 -33.394531 29.53125 -32.5625 C 25.851562 -31.75 23.597656 -33.238281 22.765625 -37.03125 L 21.5625 -41.390625 C 15.25 -38.898438 11.304688 -34.5 9.734375 -28.1875 L 14.625 -6.21875 C 14.988281 -4.550781 14.722656 -3.046875 13.828125 -1.703125 C 12.929688 -0.359375 11.609375 0.503906 9.859375 0.890625 C 8.054688 1.285156 6.53125 1.007812 5.28125 0.0625 C 4.113281 -0.769531 3.351562 -2.003906 3 -3.640625 L -3.328125 -32.265625 C -3.523438 -33.160156 -3.789062 -34.515625 -4.125 -36.328125 C -4.46875 -38.140625 -4.738281 -39.5 -4.9375 -40.40625 C -5.300781 -42.03125 -5.113281 -43.492188 -4.375 -44.796875 C -3.632812 -46.109375 -2.363281 -46.960938 -0.5625 -47.359375 C 2.675781 -48.078125 4.96875 -46.84375 6.3125 -43.65625 C 10.625 -48.632812 15.925781 -51.820312 22.21875 -53.21875 C 28.050781 -54.5 31.820312 -51.265625 33.53125 -43.515625 C 33.863281 -42.023438 34.066406 -41.046875 34.140625 -40.578125 Z M 34.140625 -40.578125 "/></g></g></g><g fill="#00ffff" fill-opacity="1"><g transform="translate(51.912344, 83.762948)"><g><path d="M 23.125 -0.953125 C 17.6875 -0.0976562 12.707031 -1.238281 8.1875 -4.375 C 3.238281 -7.789062 0.128906 -12.90625 -1.140625 -19.71875 C -2.367188 -26.195312 -1.5 -32.28125 1.46875 -37.96875 C 5.007812 -44.6875 10.78125 -48.675781 18.78125 -49.9375 C 24.675781 -50.851562 29.734375 -49.226562 33.953125 -45.0625 C 37.734375 -41.3125 40.113281 -36.296875 41.09375 -30.015625 C 42.164062 -23.171875 41.253906 -17.046875 38.359375 -11.640625 C 35.109375 -5.597656 30.03125 -2.035156 23.125 -0.953125 Z M 20.015625 -38.15625 C 16.390625 -37.613281 13.796875 -35.519531 12.234375 -31.875 C 10.898438 -28.78125 10.523438 -25.367188 11.109375 -21.640625 C 11.660156 -18.097656 13.09375 -15.539062 15.40625 -13.96875 C 17.226562 -12.707031 19.195312 -12.242188 21.3125 -12.578125 C 23.882812 -12.984375 25.972656 -14.203125 27.578125 -16.234375 C 29.410156 -18.617188 30.128906 -21.554688 29.734375 -25.046875 C 28.628906 -34.609375 25.390625 -38.976562 20.015625 -38.15625 Z M 20.015625 -38.15625 "/></g></g></g><g fill="#00ffff" fill-opacity="1"><g transform="translate(97.170011, 76.538909)"><g><path d="M 43.28125 -0.90625 C 41.925781 -0.78125 39.625 -2.070312 36.375 -4.78125 C 33.769531 -3.21875 31.453125 -2.007812 29.421875 -1.15625 C 27.398438 -0.3125 25.660156 0.175781 24.203125 0.3125 C 17.046875 0.945312 11.5 -0.488281 7.5625 -4 C 3.632812 -7.519531 1.332031 -13.097656 0.65625 -20.734375 C 0.0078125 -27.890625 2.101562 -34.253906 6.9375 -39.828125 C 11.78125 -45.398438 17.890625 -48.515625 25.265625 -49.171875 C 28.085938 -49.429688 31.429688 -48.921875 35.296875 -47.640625 C 39.953125 -46.109375 42.394531 -44.066406 42.625 -41.515625 C 42.71875 -40.441406 42.457031 -39.472656 41.84375 -38.609375 C 41.65625 -37.398438 41.5625 -35.890625 41.5625 -34.078125 C 41.5625 -32.265625 41.671875 -30.15625 41.890625 -27.75 C 42.390625 -22.070312 43.148438 -18.019531 44.171875 -15.59375 C 44.273438 -15.320312 45.097656 -13.832031 46.640625 -11.125 C 48.015625 -8.675781 48.71875 -7.269531 48.75 -6.90625 C 48.894531 -5.332031 48.410156 -3.972656 47.296875 -2.828125 C 46.191406 -1.691406 44.851562 -1.050781 43.28125 -0.90625 Z M 29.5 -30.5 C 29.414062 -31.457031 29.382812 -32.554688 29.40625 -33.796875 C 29.4375 -35.046875 29.519531 -36.4375 29.65625 -37.96875 C 29.019531 -38.207031 28.460938 -38.375 27.984375 -38.46875 C 27.515625 -38.5625 27.117188 -38.597656 26.796875 -38.578125 C 22.753906 -38.210938 19.359375 -36.3125 16.609375 -32.875 C 13.859375 -29.4375 12.671875 -25.640625 13.046875 -21.484375 C 13.398438 -17.492188 14.378906 -14.554688 15.984375 -12.671875 C 17.585938 -10.796875 19.816406 -9.988281 22.671875 -10.25 C 24.515625 -10.414062 26.234375 -10.875 27.828125 -11.625 C 29.429688 -12.382812 30.90625 -13.425781 32.25 -14.75 C 30.726562 -21.738281 29.8125 -26.988281 29.5 -30.5 Z M 29.5 -30.5 "/></g></g></g><g fill="#00ffff" fill-opacity="1"><g transform="translate(145.39358, 72.088795)"><g><path d="M 36.46875 -45.671875 C 36.664062 -55.859375 37 -62.894531 37.46875 -66.78125 C 37.914062 -70.3125 39.816406 -72.109375 43.171875 -72.171875 C 44.929688 -72.203125 46.359375 -71.660156 47.453125 -70.546875 C 48.554688 -69.441406 49.125 -68.066406 49.15625 -66.421875 C 49.226562 -62.097656 49.007812 -55.648438 48.5 -47.078125 C 48 -38.503906 47.789062 -32.054688 47.875 -27.734375 C 48.070312 -17.171875 48.546875 -10.101562 49.296875 -6.53125 C 49.390625 -6.050781 49.441406 -5.617188 49.453125 -5.234375 C 49.484375 -3.585938 48.910156 -2.222656 47.734375 -1.140625 C 46.566406 -0.0664062 45.191406 0.484375 43.609375 0.515625 C 41.410156 0.554688 39.753906 -0.394531 38.640625 -2.34375 C 36.628906 -1.082031 34.539062 -0.125 32.375 0.53125 C 30.207031 1.1875 27.960938 1.535156 25.640625 1.578125 C 18.953125 1.703125 13.363281 -0.328125 8.875 -4.515625 C 4.28125 -8.785156 1.921875 -14.296875 1.796875 -21.046875 C 1.640625 -29.066406 3.78125 -35.582031 8.21875 -40.59375 C 12.664062 -45.613281 18.546875 -48.191406 25.859375 -48.328125 C 28.097656 -48.378906 30.101562 -48.179688 31.875 -47.734375 C 33.644531 -47.296875 35.175781 -46.609375 36.46875 -45.671875 Z M 35.859375 -31.578125 C 34.828125 -33.429688 33.515625 -34.804688 31.921875 -35.703125 C 30.328125 -36.609375 28.441406 -37.039062 26.265625 -37 C 21.847656 -36.914062 18.554688 -35.578125 16.390625 -32.984375 C 14.234375 -30.390625 13.203125 -26.539062 13.296875 -21.4375 C 13.359375 -18.21875 14.601562 -15.476562 17.03125 -13.21875 C 19.46875 -10.957031 22.269531 -9.859375 25.4375 -9.921875 C 27.726562 -9.960938 29.46875 -10.265625 30.65625 -10.828125 C 31.445312 -11.203125 32.796875 -12.179688 34.703125 -13.765625 C 35.203125 -14.191406 35.6875 -14.664062 36.15625 -15.1875 C 36.070312 -16.625 35.972656 -22.085938 35.859375 -31.578125 Z M 35.859375 -31.578125 "/></g></g></g><g fill="#00ffff" fill-opacity="1"><g transform="translate(196.252437, 70.636228)"><g><path d="M 18.6875 -38.484375 C 23.53125 -43.410156 27.957031 -45.742188 31.96875 -45.484375 C 36.5625 -45.179688 39.816406 -43.210938 41.734375 -39.578125 C 43.648438 -41.078125 45.734375 -42.15625 47.984375 -42.8125 C 50.242188 -43.476562 52.65625 -43.726562 55.21875 -43.5625 C 61.0625 -43.1875 64.832031 -40.023438 66.53125 -34.078125 C 66.863281 -32.859375 67.242188 -28.78125 67.671875 -21.84375 C 68.191406 -16.96875 68.738281 -8.863281 69.3125 2.46875 C 69.332031 4.175781 68.664062 5.535156 67.3125 6.546875 C 65.957031 7.566406 64.414062 8.019531 62.6875 7.90625 C 59.257812 7.6875 57.359375 5.863281 56.984375 2.4375 C 56.640625 -0.65625 56.375 -5.019531 56.1875 -10.65625 C 55.976562 -16.832031 55.765625 -21.210938 55.546875 -23.796875 C 55.097656 -29.179688 54.242188 -31.910156 52.984375 -31.984375 C 52.304688 -32.035156 50.703125 -31.457031 48.171875 -30.25 C 45.640625 -29.039062 43.773438 -27.976562 42.578125 -27.0625 C 42.359375 -23.664062 42.441406 -18.753906 42.828125 -12.328125 C 43.234375 -5.753906 43.332031 -0.847656 43.125 2.390625 C 43.007812 4.097656 42.335938 5.476562 41.109375 6.53125 C 39.878906 7.582031 38.367188 8.046875 36.578125 7.921875 C 34.785156 7.804688 33.347656 7.148438 32.265625 5.953125 C 31.179688 4.753906 30.695312 3.300781 30.8125 1.59375 C 31.03125 -1.789062 30.984375 -6.804688 30.671875 -13.453125 C 30.367188 -20.097656 30.328125 -25.117188 30.546875 -28.515625 C 30.671875 -30.421875 30.609375 -31.945312 30.359375 -33.09375 C 26.785156 -31.332031 23.101562 -28.242188 19.3125 -23.828125 C 19.144531 -23.617188 18.875 -23.320312 18.5 -22.9375 C 17.976562 -16.925781 17.609375 -12.207031 17.390625 -8.78125 C 17.335938 -7.945312 17.234375 -6.820312 17.078125 -5.40625 C 16.929688 -4 16.835938 -2.957031 16.796875 -2.28125 C 16.691406 -0.664062 15.953125 0.5625 14.578125 1.40625 C 13.328125 2.1875 11.828125 2.519531 10.078125 2.40625 C 7.546875 2.25 5.898438 1.035156 5.140625 -1.234375 C 4.617188 -2.765625 4.460938 -5.15625 4.671875 -8.40625 L 5.75 -25.015625 C 5.84375 -26.503906 5.921875 -28.6875 5.984375 -31.5625 C 6.054688 -34.445312 6.140625 -36.632812 6.234375 -38.125 C 6.410156 -40.769531 7.039062 -43.132812 8.125 -45.21875 C 9.46875 -47.820312 11.195312 -49.054688 13.3125 -48.921875 C 14.976562 -48.816406 16.425781 -48.070312 17.65625 -46.6875 C 18.882812 -45.3125 19.445312 -43.847656 19.34375 -42.296875 C 19.382812 -42.921875 19.164062 -41.648438 18.6875 -38.484375 Z M 18.6875 -38.484375 "/></g></g></g><g fill="#00ffff" fill-opacity="1"><g transform="translate(264.362801, 75.346927)"><g><path d="M 26.53125 6.015625 C 19.476562 4.972656 13.957031 2.429688 9.96875 -1.609375 C 5.5625 -6.054688 3.859375 -11.660156 4.859375 -18.421875 C 5.960938 -25.890625 8.859375 -31.914062 13.546875 -36.5 C 18.765625 -41.582031 25.078125 -43.578125 32.484375 -42.484375 C 37.617188 -41.722656 41.765625 -40.257812 44.921875 -38.09375 C 49.054688 -35.257812 50.78125 -31.539062 50.09375 -26.9375 C 49.613281 -23.6875 47.367188 -21.078125 43.359375 -19.109375 C 41.535156 -18.203125 37.96875 -17.007812 32.65625 -15.53125 L 16.765625 -11.140625 C 17.941406 -9.390625 19.476562 -7.984375 21.375 -6.921875 C 23.28125 -5.859375 25.53125 -5.132812 28.125 -4.75 C 32.082031 -4.164062 35.550781 -4.484375 38.53125 -5.703125 C 41.195312 -6.785156 43.265625 -7.21875 44.734375 -7 C 47.804688 -6.539062 49.125 -4.820312 48.6875 -1.84375 C 48.1875 1.53125 45.316406 3.910156 40.078125 5.296875 C 35.679688 6.460938 31.164062 6.703125 26.53125 6.015625 Z M 30.90625 -31.75 C 28.15625 -32.15625 25.671875 -31.585938 23.453125 -30.046875 C 21.234375 -28.515625 19.265625 -26.003906 17.546875 -22.515625 C 21.085938 -23.460938 24.613281 -24.40625 28.125 -25.34375 C 32.382812 -26.550781 35.8125 -27.75 38.40625 -28.9375 C 36.59375 -30.34375 34.09375 -31.28125 30.90625 -31.75 Z M 30.90625 -31.75 "/></g></g></g><g clip-path="url(#1a1ff6c59e)"><g fill="#00ffff" fill-opacity="1"><g transform="translate(312.68821, 82.452442)"><g><path d="M 24.109375 7.9375 C 21.597656 7.394531 19.019531 6.53125 16.375 5.34375 L 12.453125 23.1875 C 12.085938 24.875 11.21875 26.144531 9.84375 27 C 8.46875 27.863281 6.90625 28.101562 5.15625 27.71875 C 3.40625 27.34375 2.082031 26.476562 1.1875 25.125 C 0.289062 23.78125 0.0234375 22.265625 0.390625 20.578125 C 0.691406 19.203125 1.898438 13.765625 4.015625 4.265625 C 5.609375 -2.773438 6.859375 -8.535156 7.765625 -13.015625 C 9.054688 -19.328125 10.035156 -24.796875 10.703125 -29.421875 C 11.617188 -35.785156 12.023438 -38.707031 11.921875 -38.1875 C 12.441406 -40.59375 13.425781 -42.539062 14.875 -44.03125 C 16.5625 -45.707031 18.472656 -46.316406 20.609375 -45.859375 C 22.234375 -45.503906 23.476562 -44.648438 24.34375 -43.296875 C 25.21875 -41.953125 25.484375 -40.507812 25.140625 -38.96875 L 25 -38.53125 C 27.195312 -39.21875 29.335938 -39.613281 31.421875 -39.71875 C 33.515625 -39.832031 35.550781 -39.675781 37.53125 -39.25 C 44.238281 -37.789062 48.519531 -33.878906 50.375 -27.515625 C 51.738281 -22.734375 51.675781 -16.929688 50.1875 -10.109375 C 48.800781 -3.722656 45.832031 1.171875 41.28125 4.578125 C 36.382812 8.242188 30.660156 9.363281 24.109375 7.9375 Z M 34.984375 -27.578125 C 33.148438 -27.972656 31.1875 -27.945312 29.09375 -27.5 C 27.007812 -27.050781 24.820312 -26.175781 22.53125 -24.875 C 21.582031 -18.789062 20.453125 -12.734375 19.140625 -6.703125 C 21.554688 -5.285156 24.0625 -4.296875 26.65625 -3.734375 C 29.65625 -3.078125 32.1875 -3.644531 34.25 -5.4375 C 36.132812 -7.03125 37.429688 -9.460938 38.140625 -12.734375 C 39.003906 -16.671875 39.414062 -19.441406 39.375 -21.046875 C 39.300781 -24.773438 37.835938 -26.953125 34.984375 -27.578125 Z M 34.984375 -27.578125 "/></g></g></g></g><g fill="#ff00ff" fill-opacity="1"><g transform="translate(14.532197, 92.913857)"><g><path d="M 34.140625 -40.578125 C 34.847656 -36.066406 33.3125 -33.394531 29.53125 -32.5625 C 25.851562 -31.75 23.597656 -33.238281 22.765625 -37.03125 L 21.5625 -41.390625 C 15.25 -38.898438 11.304688 -34.5 9.734375 -28.1875 L 14.625 -6.21875 C 14.988281 -4.550781 14.722656 -3.046875 13.828125 -1.703125 C 12.929688 -0.359375 11.609375 0.503906 9.859375 0.890625 C 8.054688 1.285156 6.53125 1.007812 5.28125 0.0625 C 4.113281 -0.769531 3.351562 -2.003906 3 -3.640625 L -3.328125 -32.265625 C -3.523438 -33.160156 -3.789062 -34.515625 -4.125 -36.328125 C -4.46875 -38.140625 -4.738281 -39.5 -4.9375 -40.40625 C -5.300781 -42.03125 -5.113281 -43.492188 -4.375 -44.796875 C -3.632812 -46.109375 -2.363281 -46.960938 -0.5625 -47.359375 C 2.675781 -48.078125 4.96875 -46.84375 6.3125 -43.65625 C 10.625 -48.632812 15.925781 -51.820312 22.21875 -53.21875 C 28.050781 -54.5 31.820312 -51.265625 33.53125 -43.515625 C 33.863281 -42.023438 34.066406 -41.046875 34.140625 -40.578125 Z M 34.140625 -40.578125 "/></g></g></g><g fill="#ff00ff" fill-opacity="1"><g transform="translate(55.350251, 83.762948)"><g><path d="M 23.125 -0.953125 C 17.6875 -0.0976562 12.707031 -1.238281 8.1875 -4.375 C 3.238281 -7.789062 0.128906 -12.90625 -1.140625 -19.71875 C -2.367188 -26.195312 -1.5 -32.28125 1.46875 -37.96875 C 5.007812 -44.6875 10.78125 -48.675781 18.78125 -49.9375 C 24.675781 -50.851562 29.734375 -49.226562 33.953125 -45.0625 C 37.734375 -41.3125 40.113281 -36.296875 41.09375 -30.015625 C 42.164062 -23.171875 41.253906 -17.046875 38.359375 -11.640625 C 35.109375 -5.597656 30.03125 -2.035156 23.125 -0.953125 Z M 20.015625 -38.15625 C 16.390625 -37.613281 13.796875 -35.519531 12.234375 -31.875 C 10.898438 -28.78125 10.523438 -25.367188 11.109375 -21.640625 C 11.660156 -18.097656 13.09375 -15.539062 15.40625 -13.96875 C 17.226562 -12.707031 19.195312 -12.242188 21.3125 -12.578125 C 23.882812 -12.984375 25.972656 -14.203125 27.578125 -16.234375 C 29.410156 -18.617188 30.128906 -21.554688 29.734375 -25.046875 C 28.628906 -34.609375 25.390625 -38.976562 20.015625 -38.15625 Z M 20.015625 -38.15625 "/></g></g></g><g fill="#ff00ff" fill-opacity="1"><g transform="translate(100.607916, 76.538909)"><g><path d="M 43.28125 -0.90625 C 41.925781 -0.78125 39.625 -2.070312 36.375 -4.78125 C 33.769531 -3.21875 31.453125 -2.007812 29.421875 -1.15625 C 27.398438 -0.3125 25.660156 0.175781 24.203125 0.3125 C 17.046875 0.945312 11.5 -0.488281 7.5625 -4 C 3.632812 -7.519531 1.332031 -13.097656 0.65625 -20.734375 C 0.0078125 -27.890625 2.101562 -34.253906 6.9375 -39.828125 C 11.78125 -45.398438 17.890625 -48.515625 25.265625 -49.171875 C 28.085938 -49.429688 31.429688 -48.921875 35.296875 -47.640625 C 39.953125 -46.109375 42.394531 -44.066406 42.625 -41.515625 C 42.71875 -40.441406 42.457031 -39.472656 41.84375 -38.609375 C 41.65625 -37.398438 41.5625 -35.890625 41.5625 -34.078125 C 41.5625 -32.265625 41.671875 -30.15625 41.890625 -27.75 C 42.390625 -22.070312 43.148438 -18.019531 44.171875 -15.59375 C 44.273438 -15.320312 45.097656 -13.832031 46.640625 -11.125 C 48.015625 -8.675781 48.71875 -7.269531 48.75 -6.90625 C 48.894531 -5.332031 48.410156 -3.972656 47.296875 -2.828125 C 46.191406 -1.691406 44.851562 -1.050781 43.28125 -0.90625 Z M 29.5 -30.5 C 29.414062 -31.457031 29.382812 -32.554688 29.40625 -33.796875 C 29.4375 -35.046875 29.519531 -36.4375 29.65625 -37.96875 C 29.019531 -38.207031 28.460938 -38.375 27.984375 -38.46875 C 27.515625 -38.5625 27.117188 -38.597656 26.796875 -38.578125 C 22.753906 -38.210938 19.359375 -36.3125 16.609375 -32.875 C 13.859375 -29.4375 12.671875 -25.640625 13.046875 -21.484375 C 13.398438 -17.492188 14.378906 -14.554688 15.984375 -12.671875 C 17.585938 -10.796875 19.816406 -9.988281 22.671875 -10.25 C 24.515625 -10.414062 26.234375 -10.875 27.828125 -11.625 C 29.429688 -12.382812 30.90625 -13.425781 32.25 -14.75 C 30.726562 -21.738281 29.8125 -26.988281 29.5 -30.5 Z M 29.5 -30.5 "/></g></g></g><g fill="#ff00ff" fill-opacity="1"><g transform="translate(148.83148, 72.088795)"><g><path d="M 36.46875 -45.671875 C 36.664062 -55.859375 37 -62.894531 37.46875 -66.78125 C 37.914062 -70.3125 39.816406 -72.109375 43.171875 -72.171875 C 44.929688 -72.203125 46.359375 -71.660156 47.453125 -70.546875 C 48.554688 -69.441406 49.125 -68.066406 49.15625 -66.421875 C 49.226562 -62.097656 49.007812 -55.648438 48.5 -47.078125 C 48 -38.503906 47.789062 -32.054688 47.875 -27.734375 C 48.070312 -17.171875 48.546875 -10.101562 49.296875 -6.53125 C 49.390625 -6.050781 49.441406 -5.617188 49.453125 -5.234375 C 49.484375 -3.585938 48.910156 -2.222656 47.734375 -1.140625 C 46.566406 -0.0664062 45.191406 0.484375 43.609375 0.515625 C 41.410156 0.554688 39.753906 -0.394531 38.640625 -2.34375 C 36.628906 -1.082031 34.539062 -0.125 32.375 0.53125 C 30.207031 1.1875 27.960938 1.535156 25.640625 1.578125 C 18.953125 1.703125 13.363281 -0.328125 8.875 -4.515625 C 4.28125 -8.785156 1.921875 -14.296875 1.796875 -21.046875 C 1.640625 -29.066406 3.78125 -35.582031 8.21875 -40.59375 C 12.664062 -45.613281 18.546875 -48.191406 25.859375 -48.328125 C 28.097656 -48.378906 30.101562 -48.179688 31.875 -47.734375 C 33.644531 -47.296875 35.175781 -46.609375 36.46875 -45.671875 Z M 35.859375 -31.578125 C 34.828125 -33.429688 33.515625 -34.804688 31.921875 -35.703125 C 30.328125 -36.609375 28.441406 -37.039062 26.265625 -37 C 21.847656 -36.914062 18.554688 -35.578125 16.390625 -32.984375 C 14.234375 -30.390625 13.203125 -26.539062 13.296875 -21.4375 C 13.359375 -18.21875 14.601562 -15.476562 17.03125 -13.21875 C 19.46875 -10.957031 22.269531 -9.859375 25.4375 -9.921875 C 27.726562 -9.960938 29.46875 -10.265625 30.65625 -10.828125 C 31.445312 -11.203125 32.796875 -12.179688 34.703125 -13.765625 C 35.203125 -14.191406 35.6875 -14.664062 36.15625 -15.1875 C 36.070312 -16.625 35.972656 -22.085938 35.859375 -31.578125 Z M 35.859375 -31.578125 "/></g></g></g><g fill="#ff00ff" fill-opacity="1"><g transform="translate(199.690335, 70.636228)"><g><path d="M 18.6875 -38.484375 C 23.53125 -43.410156 27.957031 -45.742188 31.96875 -45.484375 C 36.5625 -45.179688 39.816406 -43.210938 41.734375 -39.578125 C 43.648438 -41.078125 45.734375 -42.15625 47.984375 -42.8125 C 50.242188 -43.476562 52.65625 -43.726562 55.21875 -43.5625 C 61.0625 -43.1875 64.832031 -40.023438 66.53125 -34.078125 C 66.863281 -32.859375 67.242188 -28.78125 67.671875 -21.84375 C 68.191406 -16.96875 68.738281 -8.863281 69.3125 2.46875 C 69.332031 4.175781 68.664062 5.535156 67.3125 6.546875 C 65.957031 7.566406 64.414062 8.019531 62.6875 7.90625 C 59.257812 7.6875 57.359375 5.863281 56.984375 2.4375 C 56.640625 -0.65625 56.375 -5.019531 56.1875 -10.65625 C 55.976562 -16.832031 55.765625 -21.210938 55.546875 -23.796875 C 55.097656 -29.179688 54.242188 -31.910156 52.984375 -31.984375 C 52.304688 -32.035156 50.703125 -31.457031 48.171875 -30.25 C 45.640625 -29.039062 43.773438 -27.976562 42.578125 -27.0625 C 42.359375 -23.664062 42.441406 -18.753906 42.828125 -12.328125 C 43.234375 -5.753906 43.332031 -0.847656 43.125 2.390625 C 43.007812 4.097656 42.335938 5.476562 41.109375 6.53125 C 39.878906 7.582031 38.367188 8.046875 36.578125 7.921875 C 34.785156 7.804688 33.347656 7.148438 32.265625 5.953125 C 31.179688 4.753906 30.695312 3.300781 30.8125 1.59375 C 31.03125 -1.789062 30.984375 -6.804688 30.671875 -13.453125 C 30.367188 -20.097656 30.328125 -25.117188 30.546875 -28.515625 C 30.671875 -30.421875 30.609375 -31.945312 30.359375 -33.09375 C 26.785156 -31.332031 23.101562 -28.242188 19.3125 -23.828125 C 19.144531 -23.617188 18.875 -23.320312 18.5 -22.9375 C 17.976562 -16.925781 17.609375 -12.207031 17.390625 -8.78125 C 17.335938 -7.945312 17.234375 -6.820312 17.078125 -5.40625 C 16.929688 -4 16.835938 -2.957031 16.796875 -2.28125 C 16.691406 -0.664062 15.953125 0.5625 14.578125 1.40625 C 13.328125 2.1875 11.828125 2.519531 10.078125 2.40625 C 7.546875 2.25 5.898438 1.035156 5.140625 -1.234375 C 4.617188 -2.765625 4.460938 -5.15625 4.671875 -8.40625 L 5.75 -25.015625 C 5.84375 -26.503906 5.921875 -28.6875 5.984375 -31.5625 C 6.054688 -34.445312 6.140625 -36.632812 6.234375 -38.125 C 6.410156 -40.769531 7.039062 -43.132812 8.125 -45.21875 C 9.46875 -47.820312 11.195312 -49.054688 13.3125 -48.921875 C 14.976562 -48.816406 16.425781 -48.070312 17.65625 -46.6875 C 18.882812 -45.3125 19.445312 -43.847656 19.34375 -42.296875 C 19.382812 -42.921875 19.164062 -41.648438 18.6875 -38.484375 Z M 18.6875 -38.484375 "/></g></g></g><g fill="#ff00ff" fill-opacity="1"><g transform="translate(267.800715, 75.346927)"><g><path d="M 26.53125 6.015625 C 19.476562 4.972656 13.957031 2.429688 9.96875 -1.609375 C 5.5625 -6.054688 3.859375 -11.660156 4.859375 -18.421875 C 5.960938 -25.890625 8.859375 -31.914062 13.546875 -36.5 C 18.765625 -41.582031 25.078125 -43.578125 32.484375 -42.484375 C 37.617188 -41.722656 41.765625 -40.257812 44.921875 -38.09375 C 49.054688 -35.257812 50.78125 -31.539062 50.09375 -26.9375 C 49.613281 -23.6875 47.367188 -21.078125 43.359375 -19.109375 C 41.535156 -18.203125 37.96875 -17.007812 32.65625 -15.53125 L 16.765625 -11.140625 C 17.941406 -9.390625 19.476562 -7.984375 21.375 -6.921875 C 23.28125 -5.859375 25.53125 -5.132812 28.125 -4.75 C 32.082031 -4.164062 35.550781 -4.484375 38.53125 -5.703125 C 41.195312 -6.785156 43.265625 -7.21875 44.734375 -7 C 47.804688 -6.539062 49.125 -4.820312 48.6875 -1.84375 C 48.1875 1.53125 45.316406 3.910156 40.078125 5.296875 C 35.679688 6.460938 31.164062 6.703125 26.53125 6.015625 Z M 30.90625 -31.75 C 28.15625 -32.15625 25.671875 -31.585938 23.453125 -30.046875 C 21.234375 -28.515625 19.265625 -26.003906 17.546875 -22.515625 C 21.085938 -23.460938 24.613281 -24.40625 28.125 -25.34375 C 32.382812 -26.550781 35.8125 -27.75 38.40625 -28.9375 C 36.59375 -30.34375 34.09375 -31.28125 30.90625 -31.75 Z M 30.90625 -31.75 "/></g></g></g><g clip-path="url(#50ddae6830)"><g fill="#ff00ff" fill-opacity="1"><g transform="translate(316.126122, 82.452442)"><g><path d="M 24.109375 7.9375 C 21.597656 7.394531 19.019531 6.53125 16.375 5.34375 L 12.453125 23.1875 C 12.085938 24.875 11.21875 26.144531 9.84375 27 C 8.46875 27.863281 6.90625 28.101562 5.15625 27.71875 C 3.40625 27.34375 2.082031 26.476562 1.1875 25.125 C 0.289062 23.78125 0.0234375 22.265625 0.390625 20.578125 C 0.691406 19.203125 1.898438 13.765625 4.015625 4.265625 C 5.609375 -2.773438 6.859375 -8.535156 7.765625 -13.015625 C 9.054688 -19.328125 10.035156 -24.796875 10.703125 -29.421875 C 11.617188 -35.785156 12.023438 -38.707031 11.921875 -38.1875 C 12.441406 -40.59375 13.425781 -42.539062 14.875 -44.03125 C 16.5625 -45.707031 18.472656 -46.316406 20.609375 -45.859375 C 22.234375 -45.503906 23.476562 -44.648438 24.34375 -43.296875 C 25.21875 -41.953125 25.484375 -40.507812 25.140625 -38.96875 L 25 -38.53125 C 27.195312 -39.21875 29.335938 -39.613281 31.421875 -39.71875 C 33.515625 -39.832031 35.550781 -39.675781 37.53125 -39.25 C 44.238281 -37.789062 48.519531 -33.878906 50.375 -27.515625 C 51.738281 -22.734375 51.675781 -16.929688 50.1875 -10.109375 C 48.800781 -3.722656 45.832031 1.171875 41.28125 4.578125 C 36.382812 8.242188 30.660156 9.363281 24.109375 7.9375 Z M 34.984375 -27.578125 C 33.148438 -27.972656 31.1875 -27.945312 29.09375 -27.5 C 27.007812 -27.050781 24.820312 -26.175781 22.53125 -24.875 C 21.582031 -18.789062 20.453125 -12.734375 19.140625 -6.703125 C 21.554688 -5.285156 24.0625 -4.296875 26.65625 -3.734375 C 29.65625 -3.078125 32.1875 -3.644531 34.25 -5.4375 C 36.132812 -7.03125 37.429688 -9.460938 38.140625 -12.734375 C 39.003906 -16.671875 39.414062 -19.441406 39.375 -21.046875 C 39.300781 -24.773438 37.835938 -26.953125 34.984375 -27.578125 Z M 34.984375 -27.578125 "/></g></g></g></g><g fill="#00ff4c" fill-opacity="1"><g transform="translate(12.813243, 92.913857)"><g><path d="M 34.140625 -40.578125 C 34.847656 -36.066406 33.3125 -33.394531 29.53125 -32.5625 C 25.851562 -31.75 23.597656 -33.238281 22.765625 -37.03125 L 21.5625 -41.390625 C 15.25 -38.898438 11.304688 -34.5 9.734375 -28.1875 L 14.625 -6.21875 C 14.988281 -4.550781 14.722656 -3.046875 13.828125 -1.703125 C 12.929688 -0.359375 11.609375 0.503906 9.859375 0.890625 C 8.054688 1.285156 6.53125 1.007812 5.28125 0.0625 C 4.113281 -0.769531 3.351562 -2.003906 3 -3.640625 L -3.328125 -32.265625 C -3.523438 -33.160156 -3.789062 -34.515625 -4.125 -36.328125 C -4.46875 -38.140625 -4.738281 -39.5 -4.9375 -40.40625 C -5.300781 -42.03125 -5.113281 -43.492188 -4.375 -44.796875 C -3.632812 -46.109375 -2.363281 -46.960938 -0.5625 -47.359375 C 2.675781 -48.078125 4.96875 -46.84375 6.3125 -43.65625 C 10.625 -48.632812 15.925781 -51.820312 22.21875 -53.21875 C 28.050781 -54.5 31.820312 -51.265625 33.53125 -43.515625 C 33.863281 -42.023438 34.066406 -41.046875 34.140625 -40.578125 Z M 34.140625 -40.578125 "/></g></g></g><g fill="#00ff4c" fill-opacity="1"><g transform="translate(53.631297, 83.762948)"><g><path d="M 23.125 -0.953125 C 17.6875 -0.0976562 12.707031 -1.238281 8.1875 -4.375 C 3.238281 -7.789062 0.128906 -12.90625 -1.140625 -19.71875 C -2.367188 -26.195312 -1.5 -32.28125 1.46875 -37.96875 C 5.007812 -44.6875 10.78125 -48.675781 18.78125 -49.9375 C 24.675781 -50.851562 29.734375 -49.226562 33.953125 -45.0625 C 37.734375 -41.3125 40.113281 -36.296875 41.09375 -30.015625 C 42.164062 -23.171875 41.253906 -17.046875 38.359375 -11.640625 C 35.109375 -5.597656 30.03125 -2.035156 23.125 -0.953125 Z M 20.015625 -38.15625 C 16.390625 -37.613281 13.796875 -35.519531 12.234375 -31.875 C 10.898438 -28.78125 10.523438 -25.367188 11.109375 -21.640625 C 11.660156 -18.097656 13.09375 -15.539062 15.40625 -13.96875 C 17.226562 -12.707031 19.195312 -12.242188 21.3125 -12.578125 C 23.882812 -12.984375 25.972656 -14.203125 27.578125 -16.234375 C 29.410156 -18.617188 30.128906 -21.554688 29.734375 -25.046875 C 28.628906 -34.609375 25.390625 -38.976562 20.015625 -38.15625 Z M 20.015625 -38.15625 "/></g></g></g><g fill="#00ff4c" fill-opacity="1"><g transform="translate(98.88896, 76.538909)"><g><path d="M 43.28125 -0.90625 C 41.925781 -0.78125 39.625 -2.070312 36.375 -4.78125 C 33.769531 -3.21875 31.453125 -2.007812 29.421875 -1.15625 C 27.398438 -0.3125 25.660156 0.175781 24.203125 0.3125 C 17.046875 0.945312 11.5 -0.488281 7.5625 -4 C 3.632812 -7.519531 1.332031 -13.097656 0.65625 -20.734375 C 0.0078125 -27.890625 2.101562 -34.253906 6.9375 -39.828125 C 11.78125 -45.398438 17.890625 -48.515625 25.265625 -49.171875 C 28.085938 -49.429688 31.429688 -48.921875 35.296875 -47.640625 C 39.953125 -46.109375 42.394531 -44.066406 42.625 -41.515625 C 42.71875 -40.441406 42.457031 -39.472656 41.84375 -38.609375 C 41.65625 -37.398438 41.5625 -35.890625 41.5625 -34.078125 C 41.5625 -32.265625 41.671875 -30.15625 41.890625 -27.75 C 42.390625 -22.070312 43.148438 -18.019531 44.171875 -15.59375 C 44.273438 -15.320312 45.097656 -13.832031 46.640625 -11.125 C 48.015625 -8.675781 48.71875 -7.269531 48.75 -6.90625 C 48.894531 -5.332031 48.410156 -3.972656 47.296875 -2.828125 C 46.191406 -1.691406 44.851562 -1.050781 43.28125 -0.90625 Z M 29.5 -30.5 C 29.414062 -31.457031 29.382812 -32.554688 29.40625 -33.796875 C 29.4375 -35.046875 29.519531 -36.4375 29.65625 -37.96875 C 29.019531 -38.207031 28.460938 -38.375 27.984375 -38.46875 C 27.515625 -38.5625 27.117188 -38.597656 26.796875 -38.578125 C 22.753906 -38.210938 19.359375 -36.3125 16.609375 -32.875 C 13.859375 -29.4375 12.671875 -25.640625 13.046875 -21.484375 C 13.398438 -17.492188 14.378906 -14.554688 15.984375 -12.671875 C 17.585938 -10.796875 19.816406 -9.988281 22.671875 -10.25 C 24.515625 -10.414062 26.234375 -10.875 27.828125 -11.625 C 29.429688 -12.382812 30.90625 -13.425781 32.25 -14.75 C 30.726562 -21.738281 29.8125 -26.988281 29.5 -30.5 Z M 29.5 -30.5 "/></g></g></g><g fill="#00ff4c" fill-opacity="1"><g transform="translate(147.112524, 72.088795)"><g><path d="M 36.46875 -45.671875 C 36.664062 -55.859375 37 -62.894531 37.46875 -66.78125 C 37.914062 -70.3125 39.816406 -72.109375 43.171875 -72.171875 C 44.929688 -72.203125 46.359375 -71.660156 47.453125 -70.546875 C 48.554688 -69.441406 49.125 -68.066406 49.15625 -66.421875 C 49.226562 -62.097656 49.007812 -55.648438 48.5 -47.078125 C 48 -38.503906 47.789062 -32.054688 47.875 -27.734375 C 48.070312 -17.171875 48.546875 -10.101562 49.296875 -6.53125 C 49.390625 -6.050781 49.441406 -5.617188 49.453125 -5.234375 C 49.484375 -3.585938 48.910156 -2.222656 47.734375 -1.140625 C 46.566406 -0.0664062 45.191406 0.484375 43.609375 0.515625 C 41.410156 0.554688 39.753906 -0.394531 38.640625 -2.34375 C 36.628906 -1.082031 34.539062 -0.125 32.375 0.53125 C 30.207031 1.1875 27.960938 1.535156 25.640625 1.578125 C 18.953125 1.703125 13.363281 -0.328125 8.875 -4.515625 C 4.28125 -8.785156 1.921875 -14.296875 1.796875 -21.046875 C 1.640625 -29.066406 3.78125 -35.582031 8.21875 -40.59375 C 12.664062 -45.613281 18.546875 -48.191406 25.859375 -48.328125 C 28.097656 -48.378906 30.101562 -48.179688 31.875 -47.734375 C 33.644531 -47.296875 35.175781 -46.609375 36.46875 -45.671875 Z M 35.859375 -31.578125 C 34.828125 -33.429688 33.515625 -34.804688 31.921875 -35.703125 C 30.328125 -36.609375 28.441406 -37.039062 26.265625 -37 C 21.847656 -36.914062 18.554688 -35.578125 16.390625 -32.984375 C 14.234375 -30.390625 13.203125 -26.539062 13.296875 -21.4375 C 13.359375 -18.21875 14.601562 -15.476562 17.03125 -13.21875 C 19.46875 -10.957031 22.269531 -9.859375 25.4375 -9.921875 C 27.726562 -9.960938 29.46875 -10.265625 30.65625 -10.828125 C 31.445312 -11.203125 32.796875 -12.179688 34.703125 -13.765625 C 35.203125 -14.191406 35.6875 -14.664062 36.15625 -15.1875 C 36.070312 -16.625 35.972656 -22.085938 35.859375 -31.578125 Z M 35.859375 -31.578125 "/></g></g></g><g fill="#00ff4c" fill-opacity="1"><g transform="translate(197.971393, 70.636228)"><g><path d="M 18.6875 -38.484375 C 23.53125 -43.410156 27.957031 -45.742188 31.96875 -45.484375 C 36.5625 -45.179688 39.816406 -43.210938 41.734375 -39.578125 C 43.648438 -41.078125 45.734375 -42.15625 47.984375 -42.8125 C 50.242188 -43.476562 52.65625 -43.726562 55.21875 -43.5625 C 61.0625 -43.1875 64.832031 -40.023438 66.53125 -34.078125 C 66.863281 -32.859375 67.242188 -28.78125 67.671875 -21.84375 C 68.191406 -16.96875 68.738281 -8.863281 69.3125 2.46875 C 69.332031 4.175781 68.664062 5.535156 67.3125 6.546875 C 65.957031 7.566406 64.414062 8.019531 62.6875 7.90625 C 59.257812 7.6875 57.359375 5.863281 56.984375 2.4375 C 56.640625 -0.65625 56.375 -5.019531 56.1875 -10.65625 C 55.976562 -16.832031 55.765625 -21.210938 55.546875 -23.796875 C 55.097656 -29.179688 54.242188 -31.910156 52.984375 -31.984375 C 52.304688 -32.035156 50.703125 -31.457031 48.171875 -30.25 C 45.640625 -29.039062 43.773438 -27.976562 42.578125 -27.0625 C 42.359375 -23.664062 42.441406 -18.753906 42.828125 -12.328125 C 43.234375 -5.753906 43.332031 -0.847656 43.125 2.390625 C 43.007812 4.097656 42.335938 5.476562 41.109375 6.53125 C 39.878906 7.582031 38.367188 8.046875 36.578125 7.921875 C 34.785156 7.804688 33.347656 7.148438 32.265625 5.953125 C 31.179688 4.753906 30.695312 3.300781 30.8125 1.59375 C 31.03125 -1.789062 30.984375 -6.804688 30.671875 -13.453125 C 30.367188 -20.097656 30.328125 -25.117188 30.546875 -28.515625 C 30.671875 -30.421875 30.609375 -31.945312 30.359375 -33.09375 C 26.785156 -31.332031 23.101562 -28.242188 19.3125 -23.828125 C 19.144531 -23.617188 18.875 -23.320312 18.5 -22.9375 C 17.976562 -16.925781 17.609375 -12.207031 17.390625 -8.78125 C 17.335938 -7.945312 17.234375 -6.820312 17.078125 -5.40625 C 16.929688 -4 16.835938 -2.957031 16.796875 -2.28125 C 16.691406 -0.664062 15.953125 0.5625 14.578125 1.40625 C 13.328125 2.1875 11.828125 2.519531 10.078125 2.40625 C 7.546875 2.25 5.898438 1.035156 5.140625 -1.234375 C 4.617188 -2.765625 4.460938 -5.15625 4.671875 -8.40625 L 5.75 -25.015625 C 5.84375 -26.503906 5.921875 -28.6875 5.984375 -31.5625 C 6.054688 -34.445312 6.140625 -36.632812 6.234375 -38.125 C 6.410156 -40.769531 7.039062 -43.132812 8.125 -45.21875 C 9.46875 -47.820312 11.195312 -49.054688 13.3125 -48.921875 C 14.976562 -48.816406 16.425781 -48.070312 17.65625 -46.6875 C 18.882812 -45.3125 19.445312 -43.847656 19.34375 -42.296875 C 19.382812 -42.921875 19.164062 -41.648438 18.6875 -38.484375 Z M 18.6875 -38.484375 "/></g></g></g><g fill="#00ff4c" fill-opacity="1"><g transform="translate(266.081745, 75.346927)"><g><path d="M 26.53125 6.015625 C 19.476562 4.972656 13.957031 2.429688 9.96875 -1.609375 C 5.5625 -6.054688 3.859375 -11.660156 4.859375 -18.421875 C 5.960938 -25.890625 8.859375 -31.914062 13.546875 -36.5 C 18.765625 -41.582031 25.078125 -43.578125 32.484375 -42.484375 C 37.617188 -41.722656 41.765625 -40.257812 44.921875 -38.09375 C 49.054688 -35.257812 50.78125 -31.539062 50.09375 -26.9375 C 49.613281 -23.6875 47.367188 -21.078125 43.359375 -19.109375 C 41.535156 -18.203125 37.96875 -17.007812 32.65625 -15.53125 L 16.765625 -11.140625 C 17.941406 -9.390625 19.476562 -7.984375 21.375 -6.921875 C 23.28125 -5.859375 25.53125 -5.132812 28.125 -4.75 C 32.082031 -4.164062 35.550781 -4.484375 38.53125 -5.703125 C 41.195312 -6.785156 43.265625 -7.21875 44.734375 -7 C 47.804688 -6.539062 49.125 -4.820312 48.6875 -1.84375 C 48.1875 1.53125 45.316406 3.910156 40.078125 5.296875 C 35.679688 6.460938 31.164062 6.703125 26.53125 6.015625 Z M 30.90625 -31.75 C 28.15625 -32.15625 25.671875 -31.585938 23.453125 -30.046875 C 21.234375 -28.515625 19.265625 -26.003906 17.546875 -22.515625 C 21.085938 -23.460938 24.613281 -24.40625 28.125 -25.34375 C 32.382812 -26.550781 35.8125 -27.75 38.40625 -28.9375 C 36.59375 -30.34375 34.09375 -31.28125 30.90625 -31.75 Z M 30.90625 -31.75 "/></g></g></g><g clip-path="url(#acd4ff6b6d)"><g fill="#00ff4c" fill-opacity="1"><g transform="translate(314.407151, 82.452442)"><g><path d="M 24.109375 7.9375 C 21.597656 7.394531 19.019531 6.53125 16.375 5.34375 L 12.453125 23.1875 C 12.085938 24.875 11.21875 26.144531 9.84375 27 C 8.46875 27.863281 6.90625 28.101562 5.15625 27.71875 C 3.40625 27.34375 2.082031 26.476562 1.1875 25.125 C 0.289062 23.78125 0.0234375 22.265625 0.390625 20.578125 C 0.691406 19.203125 1.898438 13.765625 4.015625 4.265625 C 5.609375 -2.773438 6.859375 -8.535156 7.765625 -13.015625 C 9.054688 -19.328125 10.035156 -24.796875 10.703125 -29.421875 C 11.617188 -35.785156 12.023438 -38.707031 11.921875 -38.1875 C 12.441406 -40.59375 13.425781 -42.539062 14.875 -44.03125 C 16.5625 -45.707031 18.472656 -46.316406 20.609375 -45.859375 C 22.234375 -45.503906 23.476562 -44.648438 24.34375 -43.296875 C 25.21875 -41.953125 25.484375 -40.507812 25.140625 -38.96875 L 25 -38.53125 C 27.195312 -39.21875 29.335938 -39.613281 31.421875 -39.71875 C 33.515625 -39.832031 35.550781 -39.675781 37.53125 -39.25 C 44.238281 -37.789062 48.519531 -33.878906 50.375 -27.515625 C 51.738281 -22.734375 51.675781 -16.929688 50.1875 -10.109375 C 48.800781 -3.722656 45.832031 1.171875 41.28125 4.578125 C 36.382812 8.242188 30.660156 9.363281 24.109375 7.9375 Z M 34.984375 -27.578125 C 33.148438 -27.972656 31.1875 -27.945312 29.09375 -27.5 C 27.007812 -27.050781 24.820312 -26.175781 22.53125 -24.875 C 21.582031 -18.789062 20.453125 -12.734375 19.140625 -6.703125 C 21.554688 -5.285156 24.0625 -4.296875 26.65625 -3.734375 C 29.65625 -3.078125 32.1875 -3.644531 34.25 -5.4375 C 36.132812 -7.03125 37.429688 -9.460938 38.140625 -12.734375 C 39.003906 -16.671875 39.414062 -19.441406 39.375 -21.046875 C 39.300781 -24.773438 37.835938 -26.953125 34.984375 -27.578125 Z M 34.984375 -27.578125 "/></g></g></g></g></svg>